<?xml version="1.0" standalone="no"?>
<!DOCTYPE svg PUBLIC "-//W3C//DTD SVG 20010904//EN"
 "http://www.w3.org/TR/2001/REC-SVG-20010904/DTD/svg10.dtd">
<svg version="1.0" xmlns="http://www.w3.org/2000/svg"
 width="512.000000pt" height="512.000000pt" viewBox="0 0 512.000000 512.000000"
 preserveAspectRatio="xMidYMid meet">

<defs>
<!-- Gradient definition -->
<linearGradient id="topToBottom" x1="0%" y1="0%" x2="0%" y2="100%">
  <stop offset="0%" stop-color="#0B1115" />
  <stop offset="100%" stop-color="#223549" />
</linearGradient>


<mask id="logoMask">
<rect width="100%" height="100%" fill="black"/>
<g transform="translate(0.000000,512.000000) scale(0.100000,-0.100000)"
fill="white" stroke="none">
<path d="M1310 5111 c-8 -5 -71 -14 -140 -20 -337 -32 -436 -54 -590 -131
-111 -56 -193 -122 -287 -232 -94 -110 -208 -331 -244 -472 -11 -44 -27 -92
-35 -107 -12 -24 -14 -249 -14 -1558 0 -980 4 -1539 10 -1556 5 -14 14 -56 20
-93 33 -210 160 -455 316 -606 52 -51 203 -166 218 -166 3 0 27 -13 53 -28 81
-47 172 -80 307 -112 l128 -30 1542 3 c1444 2 1546 4 1616 20 190 46 381 132
480 215 89 76 195 184 227 232 85 127 152 299 193 495 14 68 7 2894 -8 2985
-5 36 -15 112 -21 169 -7 57 -14 107 -16 111 -3 5 -12 43 -20 85 -8 43 -25 96
-38 119 -13 22 -27 53 -31 69 -28 116 -190 304 -356 412 -117 77 -156 96 -246
125 -48 16 -71 28 -70 38 3 40 -45 41 -1544 41 -789 0 -1442 -3 -1450 -8z
m2570 -774 c128 -36 234 -131 269 -243 15 -45 11 -248 -8 -529 -6 -82 -15
-224 -21 -315 -5 -91 -15 -221 -20 -290 -6 -69 -15 -188 -21 -265 -22 -310
-40 -522 -59 -725 -5 -58 -14 -152 -20 -210 -31 -325 -37 -346 -128 -438 -57
-58 -113 -91 -187 -110 -39 -11 -64 -14 -265 -32 -52 -5 -140 -13 -195 -19
-55 -6 -147 -15 -205 -21 -58 -6 -148 -15 -200 -20 -52 -6 -142 -14 -200 -20
-58 -5 -148 -14 -200 -20 -135 -15 -269 -29 -390 -40 -58 -5 -125 -11 -150
-14 -391 -45 -567 -58 -620 -47 -141 30 -253 138 -281 269 -11 57 -12 55 31
412 22 184 30 265 40 405 6 83 15 209 20 280 6 72 12 465 15 875 3 410 8 770
11 800 18 152 133 278 289 316 74 18 2431 19 2495 1z"/>
<path d="M1654 3745 c-41 -18 -100 -87 -108 -127 -33 -165 82 -297 239 -274
49 8 124 66 149 118 21 41 21 145 1 186 -19 38 -65 78 -112 97 -44 18 -127 18
-169 0z"/>
<path d="M2254 3657 c-61 -62 -59 -129 5 -184 l26 -23 673 0 c740 0 704 -3
738 61 25 50 18 94 -21 134 l-36 35 -682 -1 -682 0 -21 -22z"/>
<path d="M1634 2898 c-143 -96 -120 -301 41 -377 47 -22 119 -28 130 -11 3 6
13 10 22 10 26 0 72 40 99 86 33 56 38 150 11 206 -34 72 -113 118 -202 118
-43 0 -62 -6 -101 -32z"/>
<path d="M2268 2825 c-14 -8 -34 -29 -42 -46 -31 -61 -15 -121 41 -157 33 -22
36 -22 601 -22 500 0 573 2 601 16 86 43 87 167 0 211 -18 10 -162 13 -599 12
-483 0 -579 -2 -602 -14z"/>
<path d="M1676 2095 c-51 -18 -110 -77 -125 -124 -37 -126 22 -247 140 -285
44 -15 58 -15 101 -5 58 15 121 65 145 117 22 47 23 137 1 182 -24 50 -76 97
-127 115 -53 18 -84 18 -135 0z"/>
<path d="M2290 1992 c-82 -36 -104 -118 -49 -185 l30 -37 514 0 513 0 31 35
c54 61 37 145 -36 183 -24 13 -975 16 -1003 4z"/>
</g>
</mask>
</defs>


  <rect 
    width="80%" 
    height="80%" 
    x="10%" 
    y="10%" 
    fill="white"
  />




<!-- Background gradient with mask applied -->
<rect width="100%" height="100%" fill="url(#topToBottom)" mask="url(#logoMask)"/>


</svg>