<svg width="64" height="64" viewBox="0 0 14 14" xmlns="http://www.w3.org/2000/svg">
  <path fill="#E53935" d="
    M7.016,12
    C6.447,12 5.986,11.539 5.986,10.970
    C5.986,10.402 6.447,9.941 7.016,9.941
    C7.584,9.941 8.045,10.402 8.045,10.970
    C8.045,11.539 7.584,12 7.016,12
    Z
    M8.376,3.570
    C8.289,4.264 7.650,7.642 7.439,8.752
    C7.400,8.957 7.221,9.106 7.012,9.106
    C6.796,9.106 6.611,8.952 6.570,8.740
    C6.356,7.613 5.718,4.232 5.632,3.548
    C5.520,2.727 6.162,2 6.991,2
    C7.831,2.00005 8.481,2.737 8.376,3.570
    Z"/>
</svg>
