<svg width="64" height="64" viewBox="0 0 64 64" xmlns="http://www.w3.org/2000/svg" role="img" focusable="false" aria-hidden="true">
  <defs>
    <mask id="holeMask">
      <rect width="64" height="64" fill="white"/>
      <circle cx="32" cy="32" r="10" fill="black"/>
    </mask>
  </defs>
  <g fill="#0000FF" mask="url(#holeMask)">
    <path d="
      M32,4 L36,4 L37,10 A22,22 0 0,1 44,13 L49,9 L55,15 L51,20 A22,22 0 0,1 54,27 L60,28 L60,36 L54,37 A22,22 0 0,1 51,44 L55,49 L49,55 L44,51 A22,22 0 0,1 37,54 L36,60 L28,60 L27,54 A22,22 0 0,1 20,51 L15,55 L9,49 L13,44 A22,22 0 0,1 10,37 L4,36 L4,28 L10,27 A22,22 0 0,1 13,20 L9,15 L15,9 L20,13 A22,22 0 0,1 27,10 L28,4 Z
    "/>
  </g>
</svg>
