<svg width="64" height="64" viewBox="0 0 64 64" xmlns="http://www.w3.org/2000/svg">
  <path fill="#007BFF" d="
    M32,4
    L39.51,22.14
    A1,1 0 0 0 40.45,22.75
    L60,24.9
    A1,1 0 0 1 60.59,26.72
    L45.03,39.6
    A1,1 0 0 0 44.72,40.7
    L49.46,59.12
    A1,1 0 0 1 48.03,60.3
    L32,50.5
    A1,1 0 0 0 30.97,50.5
    L14.94,60.3
    A1,1 0 0 1 13.51,59.12
    L18.25,40.7
    A1,1 0 0 0 17.94,39.6
    L2.38,26.72
    A1,1 0 0 1 2.97,24.9
    L22.52,22.75
    A1,1 0 0 0 23.46,22.14
    L31,4
    A1,1 0 0 1 32,4
    Z"/>
</svg>
